<?xml version="1.0" encoding="UTF-8"?>
<svg width="251px" height="292px" viewBox="0 0 251 292" version="1.1" xmlns="http://www.w3.org/2000/svg" xmlns:xlink="http://www.w3.org/1999/xlink">
    <title>nose-outline</title>
    <g id="nose-outline" stroke="none" stroke-width="1" fill="none" fill-rule="evenodd">
        <path d="M192.19,157.175 C186.605,144.327 174.04,87.271 164.329,35.464 C162.573,15.542 145.645,0 125.602,0 C105.559,0 88.631,15.542 86.875,35.464 C77.164,87.271 64.599,144.327 59.014,157.175 C26.608,159.11 0.832,186.088 0.832,218.973 C0.832,253.11 28.604,280.881 62.741,280.881 C71.582,280.881 80.287,278.974 88.279,275.352 C98.024,285.432 111.556,291.205 125.602,291.205 C139.648,291.205 153.18,285.433 162.925,275.352 C170.916,278.974 179.622,280.881 188.463,280.881 C222.6,280.881 250.372,253.11 250.372,218.973 C250.372,186.088 224.596,159.109 192.19,157.175 Z M188.462,265.881 C182.758,265.881 177.134,264.818 171.851,262.817 C174.148,258.292 175.786,253.453 176.688,248.457 C178.702,248.823 180.848,249.028 183.084,249.028 C194.365,249.028 203.509,243.99 203.509,237.777 C203.509,231.563 194.364,226.526 183.084,226.526 C172.637,226.526 164.038,230.849 162.821,236.422 L162.41,236.454 C163.005,244.175 161.124,251.87 157.167,258.415 L154.838,261.108 C154.625,261.355 154.413,261.603 154.192,261.842 C146.84,269.78 136.42,274.334 125.6,274.334 C114.78,274.334 104.36,269.78 97.01,261.844 C96.792,261.61 96.586,261.367 96.378,261.126 L94.051,258.442 C90.082,251.89 88.194,244.185 88.79,236.453 L88.38,236.421 C87.163,230.847 78.563,226.525 68.117,226.525 C56.836,226.525 47.692,231.562 47.692,237.776 C47.692,243.99 56.837,249.027 68.117,249.027 C70.353,249.027 72.499,248.822 74.513,248.456 C75.415,253.453 77.053,258.291 79.35,262.816 C74.067,264.818 68.444,265.88 62.739,265.88 C36.873,265.88 15.83,244.837 15.83,218.972 C15.83,193.106 36.873,172.063 62.739,172.063 C69.801,172.063 72.903,165.376 78.103,146.544 C81.074,135.785 84.64,120.833 88.702,102.104 C95.591,70.343 101.627,38.168 101.687,37.847 L101.792,37.042 C102.748,24.683 113.205,15 125.602,15 C137.999,15 148.456,24.683 149.409,37.043 L149.514,37.848 C149.575,38.169 155.611,70.344 162.499,102.105 C166.561,120.834 170.127,135.787 173.098,146.545 C178.298,165.377 181.401,172.064 188.462,172.064 C214.328,172.064 235.371,193.107 235.371,218.973 C235.371,244.838 214.329,265.881 188.462,265.881 Z" id="Shape" fill="#000000" fill-rule="nonzero"></path>
        <path d="M112.398,76.158 C108.346,75.319 104.37,77.911 103.522,81.966 L89.522,148.966 C88.675,153.021 91.275,156.994 95.33,157.842 C95.848,157.949 96.363,158.002 96.872,158.002 C100.348,158.002 103.467,155.571 104.206,152.034 L118.206,85.034 C119.052,80.979 116.453,77.006 112.398,76.158 Z" id="Path" fill="#000000" fill-rule="nonzero"></path>
        <circle id="Oval" fill="#000000" fill-rule="nonzero" cx="91.544" cy="175.717" r="7.5"></circle>
    </g>
</svg>